<?xml version="1.0" encoding="iso-8859-1"?>
<!-- Uploaded to: SVG Repo, www.svgrepo.com, Generator: SVG Repo Mixer Tools -->
<svg fill="#000000" height="800px" width="800px" version="1.1" id="Layer_1" xmlns="http://www.w3.org/2000/svg" xmlns:xlink="http://www.w3.org/1999/xlink" 
	 viewBox="0 0 511.566 511.566" xml:space="preserve">
<g>
	<g>
		<path d="M400.555,485.685c-4.437-139.776-43.068-272.299-96.119-329.779c-0.273-0.29-0.657-0.435-0.964-0.683
			c19.661-33.562,34.014-68.113,42.633-102.886c4.668-18.842,10.829-31.343,10.897-31.471c1.178-2.381,1.186-5.171,0.017-7.561
			s-3.379-4.096-5.982-4.617l-42.668-8.532c-2.509-0.478-5.112,0.154-7.083,1.766c-1.98,1.63-3.123,4.045-3.123,6.605
			c0,33.527-40.951,34.125-42.667,34.133c-1.741,0-42.667-0.393-42.667-34.133c0-2.56-1.152-4.975-3.132-6.605
			c-1.971-1.613-4.565-2.244-7.083-1.766l-42.665,8.533c-2.603,0.521-4.813,2.227-5.982,4.617c-1.169,2.39-1.161,5.18,0.026,7.561
			c0.06,0.128,6.221,12.629,10.889,31.471c8.619,34.773,22.98,69.325,42.641,102.886c-0.307,0.247-0.691,0.393-0.964,0.683
			c-52.719,57.105-91.119,189.628-95.573,329.771c-0.358,11.11,6.741,21.077,17.015,24.747l46.882-23.364
			c0.299-0.154,0.597-0.282,0.905-0.393c51.857-18.748,86.238-67.174,88.055-123.716c-35.703-73.045-49.681-149.905-50.935-198.75
			c0.418,0.674,0.794,1.348,1.22,2.022c1.562,2.492,4.292,4.011,7.236,4.011h8.823c2.236,47.462,16.213,118.707,49.63,186.505
			c29.5,59.87,68.855,106.718,116.983,139.221l3.78,2.364C400.597,493.783,400.606,487.392,400.555,485.685z M226.116,153.167
			c-20.864-34.202-35.883-69.487-44.672-104.934c-2.543-10.274-5.478-18.807-7.834-24.866l23.057-4.617
			c5.982,32.119,40.03,40.977,58.829,40.977s52.847-8.858,58.82-40.977l23.057,4.617c-2.347,6.059-5.291,14.583-7.834,24.866
			c-8.781,35.447-23.808,70.733-44.672,104.934H226.116z"/>
	</g>
</g>
<g>
	<g>
		<path d="M387.506,510.269c-43.87-29.627-80.563-70.237-109.619-120.968c-10.214,52.036-45.687,94.925-95.829,113.237
			l-18.108,9.028h225.638L387.506,510.269z"/>
	</g>
</g>
</svg>