<?xml version="1.0" encoding="iso-8859-1"?>
<!-- Uploaded to: SVG Repo, www.svgrepo.com, Generator: SVG Repo Mixer Tools -->
<svg fill="#000000" height="800px" width="800px" version="1.1" id="Layer_1" xmlns="http://www.w3.org/2000/svg" xmlns:xlink="http://www.w3.org/1999/xlink" 
	 viewBox="0 0 512.232 512.232" xml:space="preserve">
<g transform="translate(-1 -1)">
	<g>
		<g>
			<path d="M513.19,310.022c-0.001-0.038-0.001-0.068-0.002-0.105c0.038-0.698,0.011-1.422-0.073-2.171
				c-0.009-0.088-0.01-0.172-0.02-0.26c-0.007-0.055-0.017-0.107-0.023-0.162c-0.003-0.023-0.004-0.045-0.007-0.068
				c-0.003-0.019-0.008-0.037-0.011-0.056c-2.383-18.636-18.732-29.437-45.76-28.641c-2.052,0.06-4.192,0.002-6.411-0.173
				c-8.628-0.678-18.08-3.047-27.678-6.583c-4.102-1.511-7.945-3.132-11.41-4.748c-2.048-0.955-3.486-1.681-4.196-2.064
				l-59.481-23.843c5.243-10.778,2.316-24.11-7.618-31.6c-11.271-8.521-27.326-6.28-35.849,5.008l-3.356,4.444
				c-3.943-2.401-7.954-5.022-12.13-7.915c8.382-11.269,6.111-27.22-5.127-35.694c-10.528-7.959-25.227-6.526-34.066,2.896
				c-3.827-3.901-7.341-7.72-10.606-11.551c-28.66-33.589-51.369-52.45-69.225-50.358c-0.402,0.043-0.803,0.097-1.201,0.163
				c-0.018,0.003-0.036,0.004-0.054,0.007c-0.003,0.001-0.007,0.001-0.01,0.002c-0.055,0.009-0.111,0.015-0.166,0.024
				c-6.929,1.232-13.6,3.396-22.706,7.078c-0.683,0.276-18.531,7.773-24.459,10.063c-3.128,1.208-6.169,2.326-9.217,3.382
				c-0.399,0.138-0.776,0.304-1.136,0.489c-25.22,8.567-51.289,12.968-85.705,12.968c-4.713,0-8.533,3.82-8.533,8.533v74.741
				c-0.113,0.553-0.174,1.124-0.174,1.709v4.992c-3.347,3.328-7.362,8.053-11.355,14.081c-17.929,27.067-20.735,58.864,0.77,92.303
				c-8.641,14.072-8.299,27.096-0.536,37.581c6.426,8.698,17.039,13.525,28.277,13.525h337.485
				c39.348,0,78.196-8.821,113.672-25.814l4.223-2.022c8.519-4.044,11.519-15.146,13.083-33.775
				C513.148,327.452,513.327,318.12,513.19,310.022z M162.253,139.605c7.955-3.246,13.499-5.086,18.747-6.092
				c3.887-0.682,9.54,1.626,16.47,6.438c10.479,7.373,23.947,20.556,38.737,37.894c4.044,4.744,8.398,9.43,13.176,14.214
				l-6.623,8.769c-8.514,11.28-6.274,27.329,5,35.852c6.025,4.549,13.405,6.032,20.273,4.711c6.067-1.123,11.747-4.427,15.76-9.735
				l5.109-6.771c2.177,1.513,4.294,2.946,6.387,4.317c1.883,1.237,3.744,2.426,5.592,3.569c-0.401,0.526-0.763,1.012-1.105,1.479
				l-0.554,0.734c-8.517,11.283-6.28,27.334,5.004,35.855c6.002,4.538,13.361,6.024,20.216,4.72
				c6.087-1.114,11.791-4.422,15.811-9.749l7.734-10.247l15.327,6.131l-11.577,15.327c-15.644,20.722-45.094,24.825-65.802,9.249
				l-144.974-137.82C148.546,145.391,162.391,139.549,162.253,139.605z M340.217,223.17c3.768,2.841,4.515,8.193,1.675,11.949
				l-3.672,4.863c-0.014,0.018-0.03,0.035-0.044,0.053l-3.494,4.631l-7.101,9.402c-0.46,0.594-0.557,0.734-0.575,0.762l-0.545,0.722
				c-0.167,0.221-0.344,0.43-0.527,0.63c-2.447,2.625-6.547,3.413-9.808,1.889c-0.388-0.187-0.762-0.415-1.126-0.666
				c-0.132-0.089-0.262-0.181-0.388-0.276c-3.696-2.856-4.417-8.154-1.597-11.889l7.434-9.849c0.273-0.362,0.501-0.742,0.708-1.128
				l7.114-9.419C331.114,221.077,336.461,220.33,340.217,223.17z M283.754,189.013c3.768,2.841,4.515,8.193,1.675,11.949
				l-5.228,6.922c-0.006,0.007-0.012,0.014-0.018,0.021l-2.044,2.709l-8.141,10.78c-0.17,0.225-0.35,0.438-0.537,0.642
				c-2.658,2.835-7.202,3.505-10.602,1.436c-0.289-0.176-0.555-0.379-0.82-0.583c-3.596-2.87-4.278-8.105-1.482-11.809
				l11.144-14.753c0.29-0.384,0.537-0.788,0.754-1.203l3.352-4.438C274.651,186.92,279.998,186.174,283.754,189.013z
				 M123.028,154.95L274.52,298.966l0.688,0.588c28.243,21.647,68.711,16.152,90.15-12.247l14.438-19.114l30.165,12.066
				c1.024,0.537,2.587,1.315,4.618,2.263c3.875,1.808,8.153,3.612,12.725,5.296c10.95,4.035,21.852,6.767,32.242,7.583
				c2.815,0.221,5.566,0.297,8.25,0.218c17.473-0.515,25.803,3.998,27.921,11.669c-0.262,0.19-0.566,0.397-0.91,0.618
				c-4.731,3.037-13.659,6.573-26.573,10.737c-1.202,0.387-9.769,3.012-17.635,5.477c-5.876,1.841-11.36,3.594-13.087,4.259
				c-1.659,0.641-3.238,1.438-4.736,2.365c-0.191,0.118-0.385,0.23-0.573,0.353c-0.04,0.026-0.078,0.055-0.117,0.081
				c-1.614,1.063-3.124,2.288-4.508,3.667c-0.826,0.826-1.758,1.515-2.764,2.054c-0.011,0.006-0.023,0.012-0.035,0.018
				c-0.311,0.165-0.629,0.315-0.952,0.451c-0.033,0.014-0.066,0.029-0.099,0.042c-0.663,0.272-1.35,0.481-2.053,0.628
				c-0.087,0.018-0.174,0.033-0.261,0.048c-0.257,0.047-0.515,0.086-0.775,0.116c-0.105,0.012-0.21,0.026-0.316,0.035
				c-0.321,0.029-0.643,0.046-0.967,0.048c-0.022,0-0.045,0.002-0.067,0.002H170.067l22.982-36.77
				c8.911-14.26,3.922-33.08-10.886-41.057l-5.974-3.218c-39.907-21.492-85.366-31.828-132.171-30.607v-59.104
				C74.703,166.875,99.368,162.607,123.028,154.95z M30.99,338.118c-17.865-27.455-15.685-52.203-1.171-74.11
				c2.52-3.804,5.221-7.168,7.906-10.041c1.564-1.673,2.726-2.771,3.287-3.247c1.907-1.621,3.006-3.998,3.006-6.501v-0.51
				c44.104-1.21,86.746,8.457,124.078,28.562l5.973,3.217c6.129,3.302,8.193,11.087,4.507,16.987l-28.529,45.644H30.99z
				 M495.389,334.983c-0.531,6.328-1.332,11.662-2.391,15.582c-0.518,1.915-1.071,3.385-1.589,4.315
				c-0.087,0.156-0.103,0.204-0.013,0.173l-3.678,1.761c-33.176,15.891-69.505,24.14-106.301,24.14H43.933
				c-6.056,0-11.505-2.478-14.555-6.607c-3.593-4.852-3.782-10.63,1.63-18.993h388.281c0.639,0,1.274-0.029,1.907-0.071
				c0.149-0.01,0.297-0.021,0.446-0.033c0.617-0.051,1.231-0.115,1.84-0.204c0.016-0.002,0.032-0.004,0.048-0.006
				c0.61-0.091,1.214-0.208,1.814-0.338c0.174-0.037,0.347-0.077,0.519-0.117c0.529-0.124,1.054-0.261,1.575-0.414
				c0.116-0.034,0.232-0.068,0.348-0.104c0.52-0.161,1.034-0.34,1.544-0.53c0.203-0.076,0.405-0.154,0.607-0.234
				c0.439-0.175,0.873-0.361,1.303-0.557c0.212-0.097,0.422-0.195,0.631-0.297c0.422-0.205,0.838-0.421,1.25-0.647
				c0.216-0.118,0.43-0.24,0.643-0.364c0.376-0.219,0.747-0.448,1.113-0.684c0.123-0.079,0.252-0.148,0.374-0.23
				c1.572-1.048,3.04-2.251,4.381-3.592c0.719-0.719,1.515-1.316,2.367-1.815c0.531-0.31,1.078-0.592,1.655-0.815
				c1.468-0.565,6.806-2.261,12.585-4.066c0.031-0.01,0.061-0.019,0.092-0.029c0.021-0.007,0.042-0.013,0.063-0.02
				c7.469-2.332,15.622-4.831,17.091-5.305c9.254-2.981,16.639-5.662,22.431-8.287C495.794,329.407,495.621,332.224,495.389,334.983
				z"/>
			<path d="M129.18,269.845H43.847c-4.713,0-8.533,3.82-8.533,8.533v34.133c0,4.713,3.82,8.533,8.533,8.533h85.333
				c4.713,0,8.533-3.82,8.533-8.533v-34.133C137.713,273.666,133.893,269.845,129.18,269.845z M120.647,303.979H52.38v-17.067
				h68.267V303.979z"/>
		</g>
	</g>
</g>
</svg>