<svg id="Layer_1" data-name="Layer 1" xmlns="http://www.w3.org/2000/svg" viewBox="0 0 200.17 171.61"><defs><style>.cls-1{fill:#025159;}</style></defs><path class="cls-1" d="M447.28,184a15.15,15.15,0,0,0-15.84-2.88c-5.14,2.28-4.22,6.41-9.6,9.12-4.78,2.41-12.18,2.5-16.8-1.92-.64-.61-4.34-4.16-3.84-8.64.76-6.76,10.11-7.1,12-14.4,1.29-5-1.36-11.43-5.76-13.44-5.46-2.49-12.48,2.36-15.84,5.76-6.28,6.36-4.85,12.85-9.6,14.4-3.81,1.24-9.22-1.47-11-5.28-2.21-4.64,2.38-7.8,1-14.4-1-4.51-4.61-9.89-9.6-10.56-5.67-.76-11.39,4.79-13,10.08s1.63,8.55-.48,12.48c-1.94,3.62-6.77,4.82-10.56,5.28a11.52,11.52,0,0,1-11.52-3.84,11.32,11.32,0,0,1-2.47-7.82,8,8,0,0,0-3.68-7.1,12.67,12.67,0,0,0-10.17-1.88c-4.54,1.25-7.57,5.37-8.64,9.12-2.63,9.19,6.51,16.16,3.36,20.64-2.05,2.92-8.24,3.25-12,1-5.08-3.09-3-9.27-7.68-12.48-5.14-3.49-15.12-1.26-17.28,3.84-2,4.71,3.09,11,5.76,14.4,5,6.36,10.54,7.19,11.52,12.48.82,4.45-2,9.89-5.28,10.56-3.79.77-5.32-5.34-11.52-6.72-6-1.34-14.58,2.11-16.32,8.64-1,3.89.29,9.17,3.84,11.52,5.18,3.43,10.41-2.49,20.16,0,2,.52,9,2.3,10.08,7.2.67,3.07-1.12,6.68-4.56,9.51a7.9,7.9,0,0,1-3.86,1.71c-3.18.49-13.56,1.29-16.8,7.5s1.63,15.93,5.54,17.76a15.89,15.89,0,0,0,14.62,0c10.25-4.83,11.88-11.07,15.62-10.08,5.15,1.36,9.65,7.2,9.12,12s-11.76,6.86-15.62,13.44c-3.5,6,.8,14.24,6,18.72a10.35,10.35,0,0,0,6.79,2.22,8,8,0,0,0,7.73-6.18,16.42,16.42,0,0,1,6.6-10c1.25-.84,7.11-4.5,13-1.92,5.66,2.49,7.07,8.95,7.2,9.6,1.62,8-5.09,12.16-2.88,16.32,2.37,4.46,12.63,4.44,19.68,1.44,1.72-.73,9.75-4.14,10.08-9.6s-7.55-7-8.64-14.4a13.61,13.61,0,0,1,5.28-12.48c4.25-3.17,10.6-3.73,14.4-1,4.24,3.09,2.37,8.18,6.24,11.52,1.34,1.15,3.45,2.17,7,2.17a31.94,31.94,0,0,0,9.36-1.69,12.67,12.67,0,0,0,4.32-7.68A12.8,12.8,0,0,0,399,267.73a8,8,0,0,1,1.55-12.16l.14-.09c4.7-2.82,11.24-1.94,15.84,2.4a16.79,16.79,0,0,0,16.8,3.84c8-2.67,10.37-10.4,10.56-11,1.48-5.07.92-12.41-3.36-15.36-4.95-3.41-10.35,2.15-16.32-1.44-3.8-2.28-5.92-7.11-5.76-11.52.23-6.43,5.23-10.17,5.76-10.56,4.07-3,6.58-1.11,13.92-3.36,4.9-1.5,10.6-3.24,13-8.16S451.88,188.21,447.28,184ZM343.93,236.14V200.62l29.76,17.76Z" transform="translate(-252.06 -141.65)"/></svg>