<?xml version="1.0" encoding="utf-8"?>
<!-- Uploaded to: SVG Repo, www.svgrepo.com, Generator: SVG Repo Mixer Tools -->
<svg width="800px" height="800px" viewBox="0 -15.09 84.37 84.37" xmlns="http://www.w3.org/2000/svg">
  <g id="Group_10" data-name="Group 10" transform="translate(-174.843 -348.001)">
    <path id="Path_36" data-name="Path 36" d="M258.586,353.29c-1.132-2.315-3.708-3.624-7.657-3.891-.29-.019-.61-.029-.952-.029-3.628,0-11.889,1.325-21.672,4.3a11.03,11.03,0,0,1,2.583,2.943c8.268-2.438,15.378-3.686,19.089-3.686.262,0,.5.007.713.022,1.779.12,4.039.548,4.7,1.9.509,1.041.689,3.785-3.821,10.463-7.075,10.476-26.715,27.717-51.82,32.275a57.805,57.805,0,0,1-10.126,1.043c-5.776,0-9.613-1.4-10.805-3.949-1.077-2.3-.054-5.755,2.667-9.018,4.925-5.9,13.262-11.77,17.143-14.347a11.013,11.013,0,0,1-2.366-2.7c-4.18,2.79-12.4,8.654-17.506,14.772-3.67,4.4-4.85,9.185-3.158,12.8,1.281,2.735,4.754,6,14.025,6h0a61.291,61.291,0,0,0,10.759-1.1c26.187-4.754,46.72-22.808,54.132-33.783C258.839,360.9,260.132,356.452,258.586,353.29Z" fill="#813c86"/>
    <g id="Group_8" data-name="Group 8">
      <path id="Path_37" data-name="Path 37" d="M210.016,385.8a4.644,4.644,0,0,1-4.477-3.328l-3.14-10.484a4.665,4.665,0,0,1,4.446-6l6-.028a4.684,4.684,0,0,1,4.41,3.082l2.386,6.617a4.638,4.638,0,0,1-1.607,5.327l-5.247,3.895A4.619,4.619,0,0,1,210.016,385.8Zm2.852-16.97-6.009.029a1.79,1.79,0,0,0-1.707,2.3l3.14,10.484a1.79,1.79,0,0,0,1.724,1.279,1.766,1.766,0,0,0,1.059-.355l5.247-3.895a1.782,1.782,0,0,0,.617-2.046l-2.386-6.616A1.8,1.8,0,0,0,212.868,368.826Z" fill="#813c86"/>
      <path id="Path_38" data-name="Path 38" d="M227.271,378.12h0a4.677,4.677,0,0,1-4.386-3.082l-2.386-6.617a4.672,4.672,0,0,1,1.428-5.187l4.638-3.808a4.663,4.663,0,0,1,7.254,1.784l4.273,10.075a4.664,4.664,0,0,1-4.045,6.479l-6.525.35C227.438,378.118,227.354,378.12,227.271,378.12Zm2.245-16.881a1.763,1.763,0,0,0-1.129.408l-4.638,3.808a1.793,1.793,0,0,0-.548,1.991l2.386,6.617a1.789,1.789,0,0,0,1.781,1.181l6.525-.349a1.791,1.791,0,0,0,1.552-2.488l-4.273-10.075A1.793,1.793,0,0,0,229.516,361.239Z" fill="#813c86"/>
      <path id="Path_39" data-name="Path 39" d="M220.708,379.724a3.781,3.781,0,0,1-3.55-2.489l-2.165-6a3.775,3.775,0,0,1,2.266-4.822l1.383-.5a3.772,3.772,0,0,1,4.822,2.267l2.165,6A3.775,3.775,0,0,1,223.363,379l-1.383.5A3.737,3.737,0,0,1,220.708,379.724Zm-.794-11.163a.865.865,0,0,0-.3.053l-1.383.5a.9.9,0,0,0-.538,1.145l2.165,6a.91.91,0,0,0,1.144.538l1.383-.5a.9.9,0,0,0,.538-1.145l-2.165-6A.9.9,0,0,0,219.914,368.561Z" fill="#813c86"/>
    </g>
    <g id="Group_9" data-name="Group 9">
      <path id="Path_40" data-name="Path 40" d="M204,372.316c-3.979-1.455-6.728-4.088-7.2-7.294-.873-5.908,5.927-11.824,15.158-13.188a25.89,25.89,0,0,1,3.76-.279c7.611,0,13.674,3.493,14.53,8.333a3.208,3.208,0,0,1,2.25,1.883l.97,2.286a10.514,10.514,0,0,0,.331-4.5c-1.005-6.8-8.44-11.556-18.081-11.556a29.336,29.336,0,0,0-4.279.317c-11.17,1.65-19.315,9.377-18.155,17.224.778,5.269,5.413,9.3,11.941,10.859Z" fill="#813c86"/>
      <path id="Path_41" data-name="Path 41" d="M218.29,376.14c.013.036.019.075.031.112l.009,0Z" fill="#813c86"/>
    </g>
    <path id="Path_42" data-name="Path 42" d="M189.738,395.94c-3.258,0-5.746-.657-7.442-1.973a5.189,5.189,0,0,1-2.171-3.892,1.5,1.5,0,0,1,3-.038,2.437,2.437,0,0,0,1.11,1.634c1.414,1.025,5.3,2.357,15.414-.239A135.321,135.321,0,0,0,227.493,381.2a1.5,1.5,0,1,1,1.429,2.637c-.455.247-11.357,6.1-28.529,10.506A44.061,44.061,0,0,1,189.738,395.94Z" fill="#813c86"/>
    <path id="Path_43" data-name="Path 43" d="M206.471,355.885c.261,1,1.772,1.478,3.375,1.061s2.693-1.567,2.433-2.569-1.772-1.477-3.375-1.061S206.211,354.883,206.471,355.885Z" fill="#813c86"/>
  </g>
</svg>